<svg xmlns="http://www.w3.org/2000/svg" version="1.1" xmlns:xlink="http://www.w3.org/1999/xlink" xmlns:svgjs="http://svgjs.dev/svgjs" width="100%" height="100%" viewBox="0 0 1000 600"><rect width="1000" height="600" x="0" y="0" fill="#a08be0"/><g><circle r="166.66666666666666" cx="347.31241861979163" cy="369.5345982164814" fill="#3d155f" transform="matrix(0.6919620588755709,0,0,0.6919620588755709,0,44.296060109273384)"/><path d="M330.234558779484 374.46877919572154L330.234558779484 374.46877919572154L347.394646115972 374.46877919572154Q374.2586806044039 374.46877919572154 374.2586806044039 359.0630777850086L374.2586806044039 359.0630777850086L374.2586806044039 323.7560610287839Q374.2586806044039 308.350359618071 347.3124092757014 308.350359618071Q320.36613794699883 308.350359618071 320.36613794699883 323.7560610287839L320.36613794699883 323.7560610287839L320.36613794699883 439.9841286113869Q320.36613794699883 444.5345671063662 312.4714012810107 444.5345671063662Q304.57666461502254 444.5345671063662 304.57666461502254 439.9841286113869L304.57666461502254 439.9841286113869L304.57666461502254 325.72974519528094Q304.57666461502254 309.3372017013195 316.2268836533731 301.9358860769556Q327.8771026917236 294.53457045259177 347.2027601553404 294.53457045259177Q366.5558298990474 294.53457045259177 378.28828577766865 301.9358860769556Q390.0481539363801 309.3372017013195 390.0481539363801 325.72974519528094L390.0481539363801 325.72974519528094L390.0481539363801 357.08939361851156Q390.0481539363801 373.4819371124731 378.3979348980296 380.88325273683694Q366.74771585967903 388.2845683612008 347.394646115972 388.2845683612008L347.394646115972 388.2845683612008L330.234558779484 388.2845683612008Q326.28719044648994 388.2845683612008 326.28719044648994 381.3766737784612Q326.28719044648994 374.46877919572154 330.234558779484 374.46877919572154Z " fill="#a08be0" transform="matrix(0.6919620588755709,0,0,0.6919620588755709,0,44.296060109273384)"/><path d="M622.6370833035119 373.4306708526265L622.6370833035119 373.4306708526265L639.5743119948781 373.4306708526265Q666.0894623423844 373.4306708526265 666.0894623423844 358.22504381660764L666.0894623423844 358.22504381660764L666.0894623423844 323.3765605027422Q666.0894623423844 308.17093346672334 639.4931431672837 308.17093346672334Q612.896823992183 308.17093346672334 612.896823992183 323.3765605027422L612.896823992183 323.3765605027422L612.896823992183 438.095170169504Q612.896823992183 442.5865119630611 605.1046165431201 442.5865119630611Q597.312409094057 442.5865119630611 597.312409094057 438.095170169504L597.312409094057 438.095170169504L597.312409094057 325.324612365008Q597.312409094057 309.14495939785627 608.811326336598 301.83976491435965Q620.310243579139 294.534570430863 639.3849180638246 294.534570430863Q658.4866488243749 294.534570430863 670.0667348945103 301.83976491435965Q681.6738772405106 309.14495939785627 681.6738772405106 325.324612365008L681.6738772405106 325.324612365008L681.6738772405106 356.2769919543418Q681.6738772405106 372.4566449214936 670.1749599979696 379.7618394049902Q658.6760427554286 387.06703388848683 639.5743119948781 387.06703388848683L639.5743119948781 387.06703388848683L622.6370833035119 387.06703388848683Q618.7409795789804 387.06703388848683 618.7409795789804 380.2488523705567Q618.7409795789804 373.4306708526265 622.6370833035119 373.4306708526265ZM800.0991967007502 352.1914942987567L800.0991967007502 352.1914942987567L800.0991967007502 358.03564988555394Q800.0991967007502 374.59409071481303 793.2810151828199 380.8440904395823Q786.4628336648898 387.06703388848683 768.3621851113371 388.825691819699L768.3621851113371 388.825691819699L730.3751737971547 392.5324016131769L730.3751737971547 415.6925737534477Q730.3751737971547 430.89820078946656 755.6998480066096 430.89820078946656L755.6998480066096 430.89820078946656Q784.514781802624 430.89820078946656 784.514781802624 417.6406256157134L784.514781802624 417.6406256157134L784.514781802624 410.2542623046224Q784.514781802624 405.76292051106526 792.3069892516871 405.76292051106526Q800.0991967007502 405.76292051106526 800.0991967007502 410.2542623046224L800.0991967007502 410.2542623046224L800.0991967007502 415.6925737534477Q800.0991967007502 444.53456382532687 757.2420557309033 444.53456382532687L757.2420557309033 444.53456382532687Q738.3567751772713 444.53456382532687 726.5602389002175 437.1211442383711Q714.7907588990286 429.73478092728004 714.7907588990286 413.74452189118193L714.7907588990286 413.74452189118193L714.7907588990286 352.59733843672876Q714.7907588990286 336.41768546957695 727.2366457968376 329.11249098608033Q739.7095889705115 321.8072965025837 759.7853456621947 321.8072965025837Q779.8340460780132 321.8072965025837 789.9801495273141 328.81487195156757Q800.0991967007502 335.8224474005513 800.0991967007502 352.1914942987567ZM730.3751737971547 350.6492865744629L730.3751737971547 350.6492865744629L730.3751737971547 378.8960385773166L766.9823150422321 375.1893287838387Q778.1024444226659 374.02590892165216 781.2950849747126 370.50859305922785Q784.514781802624 366.99127719680354 784.514781802624 358.03564988555394L784.514781802624 358.03564988555394L784.514781802624 350.6492865744629Q784.514781802624 335.443659538444 757.4314496619569 335.443659538444Q730.3751737971547 335.443659538444 730.3751737971547 350.6492865744629ZM892.8210540894277 360.38954588579173L892.8210540894277 360.38954588579173L892.8210540894277 350.6492865744629Q892.8210540894277 335.443659538444 874.7204055358749 335.443659538444Q856.5927007064573 335.443659538444 856.5927007064573 350.6492865744629L856.5927007064573 350.6492865744629L856.5927007064573 440.04322203176974Q856.5927007064573 444.53456382532687 848.8004932573942 444.53456382532687Q841.0082858083313 444.53456382532687 841.0082858083313 440.04322203176974L841.0082858083313 440.04322203176974L841.0082858083313 352.59733843672876Q841.0082858083313 336.41768546957695 850.2615321540936 329.11249098608033Q859.514778499856 321.8072965025837 874.7204055358749 321.8072965025837L874.7204055358749 321.8072965025837Q908.4054689875538 321.8072965025837 908.4054689875538 352.1914942987567L908.4054689875538 352.1914942987567L908.4054689875538 360.38954588579173Q908.4054689875538 364.8538314034842 900.6132615384906 364.8538314034842Q892.8210540894277 364.8538314034842 892.8210540894277 360.38954588579173ZM998.9898805829118 358.441494023526L998.9898805829118 358.441494023526L998.9898805829118 350.8386805055166Q998.9898805829118 335.443659538444 973.8816565803752 335.443659538444L973.8816565803752 335.443659538444Q963.1673713379136 335.443659538444 956.3491898199834 338.96097540086834Q949.5310083020531 342.4512349874279 949.5310083020531 350.05404850543727L949.5310083020531 350.05404850543727L949.5310083020531 354.32894009207604Q949.5310083020531 364.8538314034842 952.2366358885334 368.07352823139564Q954.9693197508784 371.2932250593071 963.924947062128 373.4306708526265L963.924947062128 373.4306708526265L980.889232029359 377.7055624392653Q1005.0504863766275 383.9555621640346 1009.5147718943199 389.7997177508319L1009.5147718943199 389.7997177508319Q1014.98013961901 396.99668713086925 1014.98013961901 408.8743922355175L1014.98013961901 408.8743922355175L1014.98013961901 415.909023960366Q1014.98013961901 431.08759472052014 1003.1836033419561 437.8246074108559Q991.4141233407672 444.53456382532687 972.6911804423239 444.53456382532687L972.6911804423239 444.53456382532687Q942.306982646151 444.53456382532687 934.1359873349807 429.1395428582544L934.1359873349807 429.1395428582544Q930.80806540361 422.7272054782963 930.80806540361 413.55512796012823L930.80806540361 413.55512796012823L930.80806540361 407.3321845112237Q930.80806540361 404.78889457993233 932.5667233348222 403.9230937522587Q934.3253812660342 403.0302366487202 938.600272852673 403.0302366487202L938.600272852673 403.0302366487202Q946.2030863706825 403.0302366487202 946.2030863706825 407.9003663043846L946.2030863706825 407.9003663043846L946.2030863706825 416.6665996845806Q946.2030863706825 424.4588071336436 953.0212678886127 427.6785039615551Q959.8394494065428 430.89820078946656 972.9076306492424 430.89820078946656L972.9076306492424 430.89820078946656Q999.5851186519374 430.89820078946656 999.5851186519374 417.26183775360624L999.5851186519374 417.26183775360624L999.5851186519374 406.9263403732518Q999.5851186519374 400.89279085540085 995.0126080307858 397.591925199895Q990.4400974096343 394.2640032685243 979.3199680292006 391.3419254751256L979.3199680292006 391.3419254751256L962.1933454067807 387.06703388848683Q944.8502725774424 382.79214230184806 939.4931299562115 376.83976161159154Q934.1359873349807 370.887380921335 934.1359873349807 353.76075829891516L934.1359873349807 353.76075829891516L934.1359873349807 351.40686229867737Q934.5147751970879 335.8224474005513 945.2290604395496 328.81487195156757Q955.9433456820113 321.8072965025837 973.4758124424031 321.8072965025837L973.4758124424031 321.8072965025837Q1014.3849015499843 321.8072965025837 1014.3849015499843 352.1914942987567L1014.3849015499843 352.1914942987567L1014.3849015499843 359.00967581668687Q1014.3849015499843 363.09517347227205 1006.7009192043804 363.09517347227205Q998.9898805829118 363.09517347227205 998.9898805829118 358.441494023526ZM1123.6651997679207 415.6925737534477L1123.6651997679207 415.6925737534477L1123.6651997679207 350.6492865744629Q1123.6651997679207 335.443659538444 1097.095936868685 335.443659538444Q1070.4996176935842 335.443659538444 1070.4996176935842 350.6492865744629L1070.4996176935842 350.6492865744629L1070.4996176935842 415.6925737534477Q1070.4996176935842 430.89820078946656 1097.095936868685 430.89820078946656Q1123.6651997679207 430.89820078946656 1123.6651997679207 415.6925737534477ZM1139.249614666047 352.59733843672876L1139.249614666047 352.59733843672876L1139.249614666047 413.74452189118193Q1139.249614666047 429.92417485833363 1127.7777536993708 437.22936934183025Q1116.2788364568296 444.53456382532687 1097.1771056962793 444.53456382532687Q1078.1024312115937 444.53456382532687 1066.4952888655935 437.22936934183025Q1054.9152027954583 429.92417485833363 1054.9152027954583 413.74452189118193L1054.9152027954583 413.74452189118193L1054.9152027954583 352.59733843672876Q1054.9152027954583 336.41768546957695 1066.414120037999 329.11249098608033Q1077.8859810046752 321.8072965025837 1096.9877117652256 321.8072965025837Q1116.0894425257761 321.8072965025837 1127.6695285959115 329.11249098608033Q1139.249614666047 336.41768546957695 1139.249614666047 352.59733843672876ZM1264.5201719200813 352.59733843672876L1264.5201719200813 352.59733843672876L1264.5201719200813 438.095170169504Q1264.5201719200813 442.5865119630611 1256.7279644710184 442.5865119630611Q1248.9357570219554 442.5865119630611 1248.9357570219554 438.095170169504L1248.9357570219554 438.095170169504L1248.9357570219554 350.6492865744629Q1248.9357570219554 335.443659538444 1222.3394378468547 335.443659538444Q1195.743118671754 335.443659538444 1195.743118671754 350.6492865744629L1195.743118671754 350.6492865744629L1195.743118671754 438.095170169504Q1195.743118671754 442.5865119630611 1187.950911222691 442.5865119630611Q1180.158703773628 442.5865119630611 1180.158703773628 438.095170169504L1180.158703773628 438.095170169504L1180.158703773628 352.59733843672876Q1180.158703773628 336.41768546957695 1191.6576210161688 329.11249098608033Q1203.1565382587098 321.8072965025837 1222.2582690192603 321.8072965025837Q1241.332943503946 321.8072965025837 1252.9400858499462 329.11249098608033Q1264.5201719200813 336.41768546957695 1264.5201719200813 352.59733843672876Z " fill="#3d155f" transform="matrix(0.6919620588755709,0,0,0.6919620588755709,0,44.296060109273384)"/></g></svg>